<svg width="12" height="12" viewBox="0 0 12 12" fill="none" xmlns="http://www.w3.org/2000/svg">
<g id="wrap">
<path id="Vector" fill-rule="evenodd" clip-rule="evenodd" d="M6.70729 11.7071C6.31677 12.0976 5.6836 12.0976 5.29308 11.7071C4.90255 11.3166 4.90255 10.6834 5.29308 10.2929L8.58585 7.00012H1.00018C0.447898 7.00012 0.000183105 6.55241 0.000183105 6.00012C0.000183105 5.44784 0.447898 5.00012 1.00018 5.00012H8.5856L5.29308 1.7076C4.90255 1.31707 4.90255 0.683907 5.29308 0.293382C5.6836 -0.0971432 6.31677 -0.0971432 6.70729 0.293382L11.6956 5.28169C11.8833 5.46348 12 5.71817 12 6.00012C12 6.13949 11.9715 6.2722 11.92 6.39274C11.8713 6.50704 11.8003 6.61411 11.707 6.70735L6.70729 11.7071Z" fill="#7F8A94"/>
</g>
</svg>
