<svg width="20" height="20" viewBox="0 0 20 20" fill="none" xmlns="http://www.w3.org/2000/svg">
<path fill-rule="evenodd" clip-rule="evenodd" d="M1 0C0.447715 0 0 0.447715 0 1C0 3.75141 0.585458 6.36876 1.63955 8.73208C3.54672 13.008 6.9861 16.4487 11.2612 18.3574C13.6263 19.4134 16.246 20 19 20C19.5523 20 20 19.5523 20 19V14.5C20 14.0233 19.6635 13.6129 19.1961 13.5194L14.6961 12.6194C14.3154 12.5433 13.925 12.6944 13.6948 13.007L11.3527 16.1872C8.12295 14.5575 5.48318 11.9271 3.8417 8.70432L6.92526 6.80094C7.27549 6.58475 7.4575 6.17606 7.38387 5.77111L6.48387 0.821115C6.39742 0.345624 5.98329 0 5.5 0H1Z" fill="#A8B3BD"/>
</svg>
