<svg width="19" height="18" viewBox="0 0 19 18" fill="none" xmlns="http://www.w3.org/2000/svg">
<path d="M9 2C5.13401 2 2 5.13401 2 9C2 12.866 5.13401 16 9 16C12.5689 16 15.5153 13.3283 15.9458 9.87626C16.0141 9.32822 16.5138 8.93935 17.0618 9.00769C17.6099 9.07603 17.9988 9.5757 17.9304 10.1237C17.3767 14.5644 13.5903 18 9 18C4.02944 18 0 13.9706 0 9C0 4.02944 4.02944 0 9 0C11.8653 0 14.4175 1.33975 16.0644 3.42334L16.0944 2.9436C16.1288 2.39239 16.6035 1.97343 17.1547 2.00784C17.706 2.04225 18.1249 2.51698 18.0905 3.06819L17.9036 6.06237C17.8692 6.61358 17.3945 7.03253 16.8433 6.99813L13.8491 6.81123C13.2979 6.77683 12.8789 6.30209 12.9133 5.75088C12.9477 5.19967 13.4225 4.78071 13.9737 4.81512L14.6429 4.85689C13.3671 3.1225 11.3145 2 9 2Z" fill="#A8B3BD"/>
<path d="M9.0005 4.59878C9.55278 4.59879 10.0005 5.04651 10.0005 5.5988L10.0004 9.46447L12.5551 11.167C13.0146 11.4733 13.1389 12.0942 12.8326 12.5538C12.5263 13.0133 11.9055 13.1376 11.4459 12.8313L8.00043 10.535L8.00049 5.59877C8.00049 5.04649 8.44822 4.59878 9.0005 4.59878Z" fill="#A8B3BD"/>
</svg>
