<svg width="20" height="20" viewBox="0 0 20 20" fill="none" xmlns="http://www.w3.org/2000/svg">
<path d="M9.40668 6.18407L13.8164 10.5938C14.2223 10.9997 14.8804 10.9997 15.2863 10.5938L19.696 6.18407C20.1019 5.77816 20.1019 5.12006 19.696 4.71416L15.2863 0.304428C14.8804 -0.101476 14.2223 -0.101476 13.8164 0.304428L9.40668 4.71416C9.00077 5.12006 9.00077 5.77816 9.40668 6.18407Z" fill="#A8B3BD"/>
<path d="M8.31506 8.56714C8.31506 9.14118 7.84972 9.60652 7.27568 9.60652H1.03938C0.465348 9.60652 0 9.14118 0 8.56714V2.33084C0 1.75681 0.465348 1.29146 1.03938 1.29146H7.27568C7.84972 1.29146 8.31506 1.75681 8.31506 2.33084V8.56714Z" fill="#A8B3BD"/>
<path d="M0 18.961C0 19.535 0.465348 20.0004 1.03938 20.0004H7.27568C7.84972 20.0004 8.31506 19.535 8.31506 18.961V12.7247C8.31506 12.1506 7.84972 11.6853 7.27568 11.6853H1.03938C0.465348 11.6853 0 12.1506 0 12.7247V18.961Z" fill="#A8B3BD"/>
<path d="M10.3938 18.961C10.3938 19.535 10.8592 20.0004 11.4332 20.0004H17.6695C18.2435 20.0004 18.7089 19.535 18.7089 18.961V12.7247C18.7089 12.1506 18.2435 11.6853 17.6695 11.6853H11.4332C10.8592 11.6853 10.3938 12.1506 10.3938 12.7247V18.961Z" fill="#A8B3BD"/>
</svg>
