<svg width="21" height="18" viewBox="0 0 21 18" fill="none" xmlns="http://www.w3.org/2000/svg">
<path fill-rule="evenodd" clip-rule="evenodd" d="M20.9998 8.37105C20.9998 12.9943 16.2989 16.7421 10.4999 16.7421C8.8668 16.7421 7.32076 16.4449 5.94228 15.9145L1.43066 17.6919C0.936414 17.8866 0.465634 17.3633 0.711399 16.8923L2.38559 13.6841C0.894958 12.2388 0 10.3883 0 8.37105C0 3.74785 4.70098 0 10.4999 0C16.2989 0 20.9998 3.74785 20.9998 8.37105ZM6.71751 9.18624C7.28172 9.18624 7.73911 8.72885 7.73911 8.16464C7.73911 7.60042 7.28172 7.14304 6.71751 7.14304C6.15329 7.14304 5.69591 7.60042 5.69591 8.16464C5.69591 8.72885 6.15329 9.18624 6.71751 9.18624ZM11.3967 8.16463C11.3967 8.72885 10.9393 9.18623 10.3751 9.18623C9.81084 9.18623 9.35346 8.72885 9.35346 8.16463C9.35346 7.60042 9.81084 7.14304 10.3751 7.14304C10.9393 7.14304 11.3967 7.60042 11.3967 8.16463ZM14.0326 9.18623C14.5968 9.18623 15.0542 8.72885 15.0542 8.16463C15.0542 7.60042 14.5968 7.14304 14.0326 7.14304C13.4684 7.14304 13.011 7.60042 13.011 8.16463C13.011 8.72885 13.4684 9.18623 14.0326 9.18623Z" fill="white"/>
</svg>
