<svg width="22" height="15" viewBox="0 0 22 15" fill="none" xmlns="http://www.w3.org/2000/svg">
<path d="M17.8284 1.17157C16.2663 -0.390524 13.7337 -0.390524 12.1716 1.17157C11.8562 1.48699 11.7878 1.97316 12.004 2.36334C12.2067 2.72918 12.3447 3.32666 12.3447 4.00003C12.3447 4.67339 12.2067 5.27085 12.004 5.63664C11.7878 6.02682 11.8562 6.51301 12.1716 6.82843C13.7337 8.39052 16.2663 8.39052 17.8284 6.82843C19.3905 5.26633 19.3905 2.73367 17.8284 1.17157Z" fill="#A8B3BD"/>
<path d="M7 6.04242e-06C4.79086 6.04242e-06 3 1.79087 3 4.00001C3 6.20915 4.79086 8.00001 7 8.00001C9.20914 8.00001 11 6.20915 11 4.00001C11 1.79087 9.20914 6.04242e-06 7 6.04242e-06Z" fill="#A8B3BD"/>
<path d="M4 9.00001C2.97467 9.00001 1.97105 9.36099 1.21432 10.0336C0.453744 10.7097 0 11.6537 0 12.6667V14C0 14.5523 0.447715 15 1 15H13C13.5523 15 14 14.5523 14 14V12.6667C14 11.6537 13.5463 10.7097 12.7857 10.0336C12.0289 9.36099 11.0253 9.00001 10 9.00001H4Z" fill="#A8B3BD"/>
<path d="M15.5 9.00001C15.0956 9.00001 14.7309 9.24365 14.5761 9.61732C14.4214 9.991 14.5069 10.4211 14.7929 10.7071C15.0712 10.9854 15.2752 11.4838 15.3886 12.1644C15.4982 12.8221 15.5 13.4942 15.5 14C15.5 14.5523 15.9477 15 16.5 15H21C21.5523 15 22 14.5523 22 14V12.6667C22 11.6537 21.5463 10.7097 20.7857 10.0336C20.029 9.36099 19.0254 9.00001 18 9.00001H15.5Z" fill="#A8B3BD"/>
</svg>
