<svg width="17" height="11" viewBox="0 0 17 11" fill="none" xmlns="http://www.w3.org/2000/svg">
<path d="M0 1.52069C0 0.680834 0.680835 0 1.52069 0H9.99942C10.8393 0 11.5201 0.680835 11.5201 1.52069V9.47893C11.5201 10.3188 10.8393 10.9996 9.99942 10.9996H1.52068C0.680833 10.9996 0 10.3188 0 9.47893V1.52069Z" fill="#7F8A94"/>
<path d="M12.6808 3.43889C12.6808 3.29792 12.7525 3.16663 12.8712 3.09047L15.73 1.25513C16.1236 1.0024 16.641 1.28507 16.641 1.75288V9.23465C16.641 9.70246 16.1236 9.98513 15.7299 9.7324L12.8712 7.89706C12.7525 7.8209 12.6808 7.68961 12.6808 7.54863V3.43889Z" fill="#7F8A94"/>
</svg>
