<svg width="6" height="6" viewBox="0 0 6 6" fill="none" xmlns="http://www.w3.org/2000/svg">
<path d="M5.43694 0.0690551C5.54428 0.113466 5.64485 0.179299 5.7321 0.266554C5.81936 0.353809 5.88519 0.454373 5.9296 0.561712C5.9741 0.669015 5.99865 0.786676 5.99865 0.910072V4.80817C5.99865 5.31078 5.5912 5.71824 5.08858 5.71824C4.58596 5.71824 4.17851 5.31078 4.17851 4.80817V3.10718L1.55359 5.7321C1.19819 6.08751 0.621959 6.08751 0.266554 5.7321C-0.0888514 5.3767 -0.0888514 4.80047 0.266554 4.44506L2.89147 1.82014H1.19049C0.68787 1.82014 0.280417 1.41269 0.280417 0.910072C0.280417 0.407453 0.68787 0 1.19049 0H5.08842C5.21181 0 5.32964 0.0245587 5.43694 0.0690551Z" fill="#00CC02"/>
</svg>
