<svg width="18" height="18" viewBox="0 0 18 18" fill="none" xmlns="http://www.w3.org/2000/svg">
<path fill-rule="evenodd" clip-rule="evenodd" d="M7 12C9.76142 12 12 9.76142 12 7C12 4.23858 9.76142 2 7 2C4.23858 2 2 4.23858 2 7C2 9.76142 4.23858 12 7 12ZM7 14C10.866 14 14 10.866 14 7C14 3.13401 10.866 0 7 0C3.13401 0 0 3.13401 0 7C0 10.866 3.13401 14 7 14Z" fill="#181A1B"/>
<path fill-rule="evenodd" clip-rule="evenodd" d="M11.2929 11.2929C11.6834 10.9024 12.3166 10.9024 12.7071 11.2929L17.7071 16.2929C18.0976 16.6834 18.0976 17.3166 17.7071 17.7071C17.3166 18.0976 16.6834 18.0976 16.2929 17.7071L11.2929 12.7071C10.9024 12.3166 10.9024 11.6834 11.2929 11.2929Z" fill="#181A1B"/>
</svg>
