<svg width="19" height="19" viewBox="0 0 19 19" fill="none" xmlns="http://www.w3.org/2000/svg">
<path fill-rule="evenodd" clip-rule="evenodd" d="M9.50017 19.0003C14.747 19.0003 19.0003 14.747 19.0003 9.50017C19.0003 4.25337 14.747 0 9.50017 0C4.25337 0 0 4.25337 0 9.50017C0 14.747 4.25337 19.0003 9.50017 19.0003ZM10.6401 5.5101C10.6401 6.13971 10.1297 6.65012 9.50012 6.65012C8.87051 6.65012 8.3601 6.13971 8.3601 5.5101C8.3601 4.88048 8.87051 4.37008 9.50012 4.37008C10.1297 4.37008 10.6401 4.88048 10.6401 5.5101ZM10.6401 14.0602C10.6401 14.6899 10.1297 15.2003 9.50012 15.2003C8.87051 15.2003 8.3601 14.6899 8.3601 14.0602V8.74016C8.3601 8.11054 8.87051 7.60013 9.50012 7.60013C10.1297 7.60013 10.6401 8.11054 10.6401 8.74016V14.0602Z" fill="white"/>
</svg>
