<svg width="15" height="13" viewBox="0 0 15 13" fill="none" xmlns="http://www.w3.org/2000/svg">
<path fill-rule="evenodd" clip-rule="evenodd" d="M15.0014 5.97994C15.0014 9.28256 11.6432 11.9599 7.50071 11.9599C6.33407 11.9599 5.22963 11.7475 4.2449 11.3687L1.02201 12.6384C0.668937 12.7775 0.332631 12.4036 0.508196 12.0672L1.70416 9.77537C0.639319 8.74291 0 7.42094 0 5.97994C0 2.67731 3.35818 0 7.50071 0C11.6432 0 15.0014 2.67731 15.0014 5.97994ZM4.7987 6.56227C5.20175 6.56227 5.52849 6.23554 5.52849 5.83249C5.52849 5.42944 5.20175 5.1027 4.7987 5.1027C4.39565 5.1027 4.06891 5.42944 4.06891 5.83249C4.06891 6.23554 4.39565 6.56227 4.7987 6.56227ZM8.14129 5.83249C8.14129 6.23554 7.81456 6.56227 7.41151 6.56227C7.00846 6.56227 6.68172 6.23554 6.68172 5.83249C6.68172 5.42943 7.00846 5.1027 7.41151 5.1027C7.81456 5.1027 8.14129 5.42943 8.14129 5.83249ZM10.0243 6.56227C10.4274 6.56227 10.7541 6.23554 10.7541 5.83249C10.7541 5.42943 10.4274 5.1027 10.0243 5.1027C9.62126 5.1027 9.29452 5.42943 9.29452 5.83249C9.29452 6.23554 9.62126 6.56227 10.0243 6.56227Z" fill="#7F8A94"/>
</svg>
