<svg width="15" height="15" viewBox="0 0 15 15" fill="none" xmlns="http://www.w3.org/2000/svg">
<path fill-rule="evenodd" clip-rule="evenodd" d="M8.16284 0.399084C8.03286 0.153561 7.77781 0 7.5 0C7.22219 0 6.96714 0.153561 6.83716 0.399084L0.0871594 13.1491C-0.035913 13.3816 -0.0282055 13.6615 0.107471 13.8869C0.243148 14.1122 0.486962 14.25 0.75 14.25H14.25C14.513 14.25 14.7569 14.1122 14.8925 13.8869C15.0282 13.6615 15.0359 13.3816 14.9128 13.1491L8.16284 0.399084ZM8.25 6C8.25 5.58579 7.91421 5.25 7.5 5.25C7.08579 5.25 6.75 5.58579 6.75 6V9C6.75 9.41421 7.08579 9.75 7.5 9.75C7.91421 9.75 8.25 9.41421 8.25 9V6ZM7.5 12C7.91421 12 8.25 11.6642 8.25 11.25C8.25 10.8358 7.91421 10.5 7.5 10.5C7.08579 10.5 6.75 10.8358 6.75 11.25C6.75 11.6642 7.08579 12 7.5 12Z" fill="#E93D35"/>
</svg>
