<svg width="12" height="12" viewBox="0 0 12 12" fill="none" xmlns="http://www.w3.org/2000/svg">
<path d="M2.66667 3.33333C2.66667 1.49238 4.15905 0 6 0C7.84095 0 9.33333 1.49238 9.33333 3.33333C9.33333 5.17428 7.84095 6.66667 6 6.66667C4.15905 6.66667 2.66667 5.17428 2.66667 3.33333Z" fill="#A8B3BD"/>
<path d="M1.02093 8.13873C1.6515 7.61325 2.4846 7.33333 3.33333 7.33333H8.66667C9.5154 7.33333 10.3485 7.61325 10.9791 8.13873C11.6132 8.66716 12 9.41274 12 10.2222V11.3333C12 11.7015 11.7015 12 11.3333 12H0.666667C0.298477 12 0 11.7015 0 11.3333V10.2222C0 9.41274 0.386807 8.66716 1.02093 8.13873Z" fill="#A8B3BD"/>
</svg>
