<svg width="17" height="16" viewBox="0 0 17 16" fill="none" xmlns="http://www.w3.org/2000/svg">
<g id="action/phone_filled">
<g id="wrap">
<path id="Vector" fill-rule="evenodd" clip-rule="evenodd" d="M2.4987 1.33301C2.13051 1.33301 1.83203 1.63148 1.83203 1.99967C1.83203 3.83395 2.22234 5.57885 2.92506 7.15439C4.19651 10.005 6.48943 12.2988 9.33948 13.5713C10.9162 14.2753 12.6627 14.6663 14.4987 14.6663C14.8669 14.6663 15.1654 14.3679 15.1654 13.9997V10.9997C15.1654 10.6819 14.9411 10.4083 14.6294 10.346L11.6294 9.74595C11.3756 9.69519 11.1154 9.79593 10.9619 10.0043L9.40053 12.1245C7.24733 11.038 5.48749 9.28443 4.39316 7.13589L6.44887 5.86697C6.68236 5.72284 6.8037 5.45038 6.75461 5.18042L6.15461 1.88042C6.09698 1.56342 5.82089 1.33301 5.4987 1.33301H2.4987Z" fill="#00CC02"/>
</g>
</g>
</svg>
