<svg width="18" height="19" viewBox="0 0 18 19" fill="none" xmlns="http://www.w3.org/2000/svg">
<g id="phone_icon_outbound">
<g id="Vector">
<path fill-rule="evenodd" clip-rule="evenodd" d="M16.5344 1.9638C16.1829 1.61233 15.6131 1.61233 15.2616 1.9638L10.5449 6.68054C10.1934 7.03201 10.1934 7.60186 10.5449 7.95333C10.8963 8.3048 11.4662 8.3048 11.8176 7.95333L16.5344 3.23659C16.8859 2.88512 16.8859 2.31527 16.5344 1.9638Z" fill="#00CC02"/>
<path fill-rule="evenodd" clip-rule="evenodd" d="M16.798 2.6002C16.798 2.10314 16.395 1.7002 15.898 1.7002L12.043 1.7002C11.546 1.7002 11.143 2.10314 11.143 2.6002C11.143 3.09725 11.546 3.5002 12.043 3.5002L14.998 3.5002L14.998 6.45515C14.998 6.9522 15.4009 7.35515 15.898 7.35515C16.395 7.35515 16.798 6.9522 16.798 6.45515V2.6002Z" fill="#00CC02"/>
</g>
<path id="Vector_2" fill-rule="evenodd" clip-rule="evenodd" d="M2.25 2C1.83579 2 1.5 2.33579 1.5 2.75C1.5 4.81356 1.93909 6.77657 2.72966 8.54906C4.16004 11.756 6.73957 14.3365 9.94588 15.7681C11.7197 16.5601 13.6845 17 15.75 17C16.1642 17 16.5 16.6642 16.5 16.25V12.875C16.5 12.5175 16.2477 12.2097 15.8971 12.1396L12.5221 11.4646C12.2366 11.4075 11.9438 11.5208 11.7711 11.7553L10.0146 14.1404C7.59221 12.9181 5.61239 10.9454 4.38127 8.52824L6.69394 7.10071C6.95662 6.93857 7.09312 6.63204 7.0379 6.32834L6.3629 2.61584C6.29806 2.25922 5.98746 2 5.625 2H2.25Z" fill="#7F8A94"/>
</g>
</svg>
