<svg width="7" height="7" viewBox="0 0 7 7" fill="none" xmlns="http://www.w3.org/2000/svg">
<path fill-rule="evenodd" clip-rule="evenodd" d="M6.71699 0.283158C6.33945 -0.0943856 5.72733 -0.0943857 5.34978 0.283158L0.283158 5.34978C-0.0943859 5.72733 -0.094386 6.33945 0.283158 6.71699C0.660702 7.09453 1.27282 7.09453 1.65036 6.71699L6.71699 1.65037C7.09454 1.27282 7.09454 0.660702 6.71699 0.283158Z" fill="#00CC02"/>
<path fill-rule="evenodd" clip-rule="evenodd" d="M7.00015 0.966762C7.00015 0.432834 6.56732 4.08687e-07 6.03339 3.6201e-07L1.89248 0C1.35855 -4.66775e-08 0.925718 0.432834 0.925718 0.966761C0.925717 1.50069 1.35855 1.93352 1.89248 1.93352L5.06663 1.93352L5.06663 5.10767C5.06663 5.6416 5.49946 6.07443 6.03339 6.07443C6.56732 6.07443 7.00015 5.6416 7.00015 5.10767V0.966762Z" fill="#00CC02"/>
</svg>
