<svg width="10" height="6" viewBox="0 0 10 6" fill="none" xmlns="http://www.w3.org/2000/svg">
<path fill-rule="evenodd" clip-rule="evenodd" d="M0.266598 0.266598C0.622062 -0.088866 1.19838 -0.088866 1.55385 0.266598L5.08942 3.80217L8.26302 0.628576C8.61848 0.273112 9.1948 0.273112 9.55026 0.628576C9.90573 0.98404 9.90573 1.56036 9.55026 1.91582L5.73304 5.73304C5.56234 5.90374 5.33083 5.99964 5.08942 5.99964C4.84801 5.99964 4.61649 5.90374 4.4458 5.73304L0.266598 1.55385C-0.088866 1.19838 -0.088866 0.622062 0.266598 0.266598Z" fill="#E93D35"/>
<path fill-rule="evenodd" clip-rule="evenodd" d="M1.50704e-08 0.910222C1.50704e-08 0.40752 0.40752 1.50704e-08 0.910222 1.50704e-08H3.89536C4.39807 1.50704e-08 4.80559 0.40752 4.80559 0.910222C4.80559 1.41292 4.39807 1.82044 3.89536 1.82044H1.82044V3.89536C1.82044 4.39807 1.41292 4.80559 0.910222 4.80559C0.40752 4.80559 1.50704e-08 4.39807 1.50704e-08 3.89536V0.910222Z" fill="#E93D35"/>
</svg>
