<svg width="15" height="15" viewBox="0 0 15 15" fill="none" xmlns="http://www.w3.org/2000/svg">
<path fill-rule="evenodd" clip-rule="evenodd" d="M0.75 0C0.335786 0 0 0.335786 0 0.75C0 2.81356 0.439093 4.77657 1.22966 6.54906C2.66004 9.75603 5.23957 12.3365 8.44588 13.7681C10.2197 14.5601 12.1845 15 14.25 15C14.6642 15 15 14.6642 15 14.25V10.875C15 10.5175 14.7477 10.2097 14.3971 10.1396L11.0221 9.46457C10.7366 9.40746 10.4438 9.52079 10.2711 9.75526L8.51455 12.1404C6.09221 10.9181 4.11239 8.94536 2.88127 6.52824L5.19394 5.10071C5.45662 4.93857 5.59312 4.63204 5.5379 4.32834L4.8629 0.615836C4.79806 0.259218 4.48746 0 4.125 0H0.75Z" fill="#7F8A94"/>
</svg>
