<svg width="7" height="7" viewBox="0 0 7 7" fill="none" xmlns="http://www.w3.org/2000/svg">
<path fill-rule="evenodd" clip-rule="evenodd" d="M0.283158 6.71699C0.660702 7.09453 1.27282 7.09453 1.65037 6.71699L6.71699 1.65036C7.09453 1.27282 7.09453 0.660702 6.71699 0.283158C6.33945 -0.094386 5.72733 -0.094386 5.34978 0.283158L0.283158 5.34978C-0.094386 5.72733 -0.094386 6.33945 0.283158 6.71699Z" fill="#00CC02"/>
<path fill-rule="evenodd" clip-rule="evenodd" d="M1.60065e-08 6.03339C1.60065e-08 6.56732 0.432834 7.00015 0.966762 7.00015H5.10767C5.6416 7.00015 6.07443 6.56732 6.07443 6.03339C6.07443 5.49946 5.6416 5.06663 5.10767 5.06663H1.93352V1.89248C1.93352 1.35855 1.50069 0.925717 0.966762 0.925717C0.432834 0.925717 1.60065e-08 1.35855 1.60065e-08 1.89248V6.03339Z" fill="#00CC02"/>
</svg>
