<svg width="21" height="14" viewBox="0 0 21 14" fill="none" xmlns="http://www.w3.org/2000/svg">
<path d="M0 1.91904C0 0.859184 0.859183 0 1.91904 0H12.6188C13.6787 0 14.5379 0.859183 14.5379 1.91904V11.962C14.5379 13.0218 13.6787 13.881 12.6188 13.881H1.91904C0.859183 13.881 0 13.0218 0 11.962V1.91904Z" fill="white"/>
<path d="M16.0026 4.33971C16.0026 4.1618 16.0931 3.99612 16.2428 3.90001L19.8505 1.5839C20.3473 1.26496 21.0002 1.62168 21.0002 2.21203V11.6537C21.0002 12.244 20.3473 12.6008 19.8505 12.2818L16.2428 9.96571C16.0931 9.8696 16.0026 9.70392 16.0026 9.52602V4.33971Z" fill="white"/>
</svg>
